<?xml version="1.0" encoding="UTF-8" standalone="no"?>
<svg width="52px" height="38px" viewBox="0 0 52 38" version="1.1" xmlns="http://www.w3.org/2000/svg" xmlns:xlink="http://www.w3.org/1999/xlink">
    <!-- Generator: Sketch 3.6 (26304) - http://www.bohemiancoding.com/sketch -->
    <title>icons/card</title>
    <desc>Created with Sketch.</desc>
    <defs></defs>
    <g id="Page-1" stroke="none" stroke-width="1" fill="none" fill-rule="evenodd">
        <g id="finolog-alfa/full-photo" transform="translate(-921.000000, -4739.000000)" fill="#FF4026">
            <g id="content" transform="translate(105.000000, 1024.000000)">
                <g id="how-to-use" transform="translate(0.000000, 3538.000000)">
                    <g id="1-copy-2" transform="translate(814.000000, 177.000000)">
                        <path d="M44,19.0494064 L44,11 L4,11 L4,26.0029953 C4,27.1050211 4.89421792,28 5.99729162,28 L35.0494064,28 C35.0167302,28.3289127 35,28.6625074 35,29 C35,29.3788153 35.021078,29.7527198 35.0621247,30.1206045 L4.99695361,30.1206045 C3.34178183,30.1206045 2,28.7678695 2,27.1224069 L2,2.99819765 C2,1.34233881 3.34410767,0 4.99695361,0 L43.109704,0 C44.7648758,0 46.1066576,1.352735 46.1066576,2.99819765 L46.1066576,19.0605785 C45.7432709,19.0205487 45.3740292,19 45,19 C44.6625074,19 44.3289127,19.0167302 44,19.0494064 Z M44,6 L44,3.99700466 C44,2.89497885 43.1057821,2 42.0027084,2 L5.99729162,2 C4.89153983,2 4,2.89408944 4,3.99700466 L4,6 L44,6 Z M36,29 C36,24.0304918 40.0304918,20 45,20 C49.9695082,20 54,24.0304918 54,29 C54,33.9695082 49.9695082,38 45,38 C40.0304918,38 36,33.9695082 36,29 Z M38,29 C38,25.134827 41.134827,22 45,22 C48.865173,22 52,25.134827 52,29 C52,32.865173 48.865173,36 45,36 C41.134827,36 38,32.865173 38,29 Z M39.8952207,29.8328978 L42.6934655,32.6311427 C43.0797174,33.0173945 43.7044461,33.0222352 44.0966369,32.6420151 L49.147372,27.7454416 C49.543901,27.3610158 49.5537125,26.7279268 49.1692866,26.3313978 C48.7848608,25.9348689 48.1517718,25.9250574 47.7552429,26.3094832 L42.7045077,31.2060567 L44.1076791,31.2169291 L41.3094343,28.4186843 C40.91891,28.02816 40.285745,28.02816 39.8952207,28.4186843 C39.5046964,28.8092086 39.5046964,29.4423735 39.8952207,29.8328978 Z" id="icons/card"></path>
                    </g>
                </g>
            </g>
        </g>
    </g>
</svg>