<?xml version="1.0" encoding="UTF-8" standalone="no"?>
<svg width="44px" height="35px" viewBox="0 0 44 35" version="1.1" xmlns="http://www.w3.org/2000/svg" xmlns:xlink="http://www.w3.org/1999/xlink">
    <!-- Generator: Sketch 3.6 (26304) - http://www.bohemiancoding.com/sketch -->
    <title>icons/case</title>
    <desc>Created with Sketch.</desc>
    <defs></defs>
    <g id="Page-1" stroke="none" stroke-width="1" fill="none" fill-rule="evenodd">
        <g id="finolog-alfa/full-photo" transform="translate(-429.000000, -528.000000)" fill="#FFFFFF">
            <g id="Head">
                <g id="first-screen" transform="translate(266.000000, 266.000000)">
                    <path d="M193.821873,268 L203.763086,268 C205.548041,268.078395 207,269.519687 207,271.290556 L207,293.787353 C207,295.558708 205.54853,297 203.763575,297 L166.235935,297 C164.451959,297 163,295.559194 163,293.787353 L163,271.290556 C163,269.519687 164.45147,268.078395 166.235935,268 L176.178127,268 C177.012392,264.544593 180.675209,262 185,262 C189.324791,262 192.987608,264.544593 193.821873,268 Z M191.732938,268 L178.267062,268 C179.097085,265.717543 181.770822,264 185,264 C188.229178,264 190.902915,265.717543 191.732938,268 Z M203.763575,270 C204.52163,269.927527 205.137183,270.539529 205,271.450012 L205,276.035397 C201.940424,280.058376 195.872066,283.002696 189,283.774139 L189,281 L181,281 L181,283.780459 C174.145563,283.049848 168.138908,280.227054 165,276.332405 L165,271.450012 C164.862328,270.539529 165.47837,269.927527 166.399994,270 L203.763575,270 Z M187,283 L187,288 L183,288 L183,283 L187,283 Z M166.440002,295 C165.47837,295.151354 164.862328,294.540324 165,293.590027 L165,278.964161 C168.649175,282.493261 174.506472,284.973353 181,285.639798 L181,290 L189,290 L189,285.632021 C195.477368,284.931548 201.383635,282.363958 205,278.739582 L205,293.590027 C205.136693,294.540324 204.521141,295.151354 203.660004,295 L166.440002,295 Z" id="icons/case"></path>
                </g>
            </g>
        </g>
    </g>
</svg>