<?xml version="1.0" encoding="UTF-8" standalone="no"?>
<svg width="44px" height="39px" viewBox="0 0 44 39" version="1.1" xmlns="http://www.w3.org/2000/svg" xmlns:xlink="http://www.w3.org/1999/xlink">
    <!-- Generator: Sketch 3.6 (26304) - http://www.bohemiancoding.com/sketch -->
    <title>icons/emails</title>
    <desc>Created with Sketch.</desc>
    <defs></defs>
    <g id="Page-1" stroke="none" stroke-width="1" fill="none" fill-rule="evenodd">
        <g id="finolog-alfa/full-photo" transform="translate(-303.000000, -525.000000)" fill="#FFFFFF">
            <g id="Head">
                <g id="first-screen" transform="translate(266.000000, 266.000000)">
                    <g id="icons/emails" transform="translate(37.000000, 259.000000)">
                        <path d="M40.0104138,5 C40.0104138,4.44771526 39.5618829,4 39.008592,4 L4.94664943,4 C4.39335851,4 3.94482759,4.44771526 3.94482759,5 C3.94482759,5.55228474 4.39335851,6 4.94664943,6 L39.008592,6 C39.5618829,6 40.0104138,5.55228474 40.0104138,5 Z" id="Shape"></path>
                        <path d="M34.9388448,2 C35.4921358,2 35.9406667,1.55228475 35.9406667,1 C35.9406667,0.44771525 35.4921358,0 34.9388448,0 L8.89147701,0 C8.3381861,0 7.88965517,0.44771525 7.88965517,1 C7.88965517,1.55228475 8.3381861,2 8.89147701,2 L34.9388448,2 L34.9388448,2 Z" id="Shape"></path>
                        <path d="M25.9438038,27.9844134 C25.9438038,27.4407369 25.502264,27 24.9575969,27 L6.9862069,27 C6.44153988,27 6,27.4407369 6,27.9844135 C6,28.52809 6.44153988,28.9688269 6.9862069,29 L24.9575969,29 C25.502264,28.9688269 25.9438038,28.52809 25.9438038,27.9844134 Z" id="Shape"></path>
                        <path d="M26.1039848,31.9844134 C26.1039848,31.4407368 25.662445,31 25.1177779,31 L6.9862069,31 C6.44153988,31 6,31.4407369 6,31.9844135 C6,32.52809 6.44153988,32.9688269 6.9862069,33 L25.1177779,33 C25.662445,32.9688269 26.1039848,32.52809 26.1039848,31.9844134 Z" id="Shape"></path>
                        <path d="M29.9999997,21.0344234 C29.9999997,21.5781 30.4415395,22.0188368 30.9862066,22 L36.9809067,22 C37.5255738,22.0188368 37.9671136,21.5781 37.9671136,21.0344234 L37.9671139,15.0617658 C37.9671139,14.5180893 37.525574,14.0773524 36.980907,14 L30.9862068,14 C30.4415397,14.0773524 29.9999999,14.5180893 29.9999999,15.0617658 L29.9999997,21.0344234 Z M36,16 L36,20 L32,20 L32,16 L36,16 Z" id="Shape"></path>
                        <path d="M-7.39919001e-09,38.0108874 C-7.39919001e-09,38.5545639 0.44153986,38.9953008 0.986206889,38.9953008 L42.0313187,38.9953008 C42.5759857,38.9953008 43.0175256,38.5545639 43.0175256,38.0108874 L43.0175247,8.85972106 C43.0175247,8.31604453 42.5759849,7.8753076 42.0313178,7.8753076 L0.986206897,8 C0.441539867,7.87530763 7.10542736e-15,8.31604455 7.10542736e-15,8.85972108 L-7.39919001e-09,38.0108874 Z M41,10 L41,37 L2,37 L2,10 L41,10 Z" id="Shape"></path>
                    </g>
                </g>
            </g>
        </g>
    </g>
</svg>