<?xml version="1.0" encoding="UTF-8" standalone="no"?>
<svg width="38px" height="42px" viewBox="0 0 38 42" version="1.1" xmlns="http://www.w3.org/2000/svg" xmlns:xlink="http://www.w3.org/1999/xlink">
    <!-- Generator: Sketch 3.6 (26304) - http://www.bohemiancoding.com/sketch -->
    <title>icons/graph</title>
    <desc>Created with Sketch.</desc>
    <defs></defs>
    <g id="Page-1" stroke="none" stroke-width="1" fill="none" fill-rule="evenodd">
        <g id="finolog-alfa/full-photo" transform="translate(-691.000000, -525.000000)" fill="#FFFFFF">
            <g id="Head">
                <g id="first-screen" transform="translate(266.000000, 266.000000)">
                    <g id="icons/graph" transform="translate(425.000000, 259.000000)">
                        <path d="M1.825,13.425 C1.325,13.425 0.825,13.225 0.525,12.925 C-0.175,12.225 -0.175,11.025 0.525,10.325 C1.225,9.625 2.425,9.625 3.125,10.325 C3.825,11.025 3.825,12.225 3.125,12.925 C2.825,13.225 2.325,13.425 1.825,13.425 L1.825,13.425 Z" id="Shape"></path>
                        <path d="M11.625,3.625 C11.125,3.625 10.625,3.425 10.325,3.125 C9.925,2.725 9.825,2.325 9.825,1.825 C9.825,1.325 10.025,0.825 10.325,0.525 C11.025,-0.175 12.225,-0.175 12.925,0.525 C13.325,0.925 13.425,1.325 13.425,1.825 C13.425,2.325 13.225,2.825 12.925,3.125 C12.625,3.425 12.125,3.625 11.625,3.625 L11.625,3.625 Z" id="Shape"></path>
                        <path d="M1.825,27.625 C1.325,27.625 0.825,27.425 0.525,27.125 C-0.175,26.425 -0.175,25.225 0.525,24.525 C1.225,23.825 2.425,23.825 3.125,24.525 C3.825,25.225 3.825,26.425 3.125,27.125 C2.825,27.425 2.325,27.625 1.825,27.625 L1.825,27.625 Z" id="Shape"></path>
                        <path d="M11.625,17.825 C11.125,17.825 10.625,17.625 10.325,17.325 C9.925,16.925 9.825,16.525 9.825,16.025 C9.825,15.525 10.025,15.025 10.325,14.725 C11.025,14.025 12.225,14.025 12.925,14.725 C13.325,15.125 13.425,15.525 13.425,16.025 C13.425,16.525 13.225,17.025 12.925,17.325 C12.625,17.625 12.125,17.825 11.625,17.825 L11.625,17.825 Z" id="Shape"></path>
                        <path d="M1.825,41.825 C1.325,41.825 0.825,41.625 0.525,41.325 C-0.175,40.625 -0.175,39.425 0.525,38.725 C1.225,38.025 2.425,38.025 3.125,38.725 C3.825,39.425 3.825,40.625 3.125,41.325 C2.825,41.725 2.325,41.825 1.825,41.825 L1.825,41.825 Z" id="Shape"></path>
                        <path d="M11.625,32.025 C11.125,32.025 10.625,31.825 10.325,31.525 C9.925,31.125 9.825,30.725 9.825,30.225 C9.825,29.725 10.025,29.225 10.325,28.925 C11.025,28.225 12.225,28.225 12.925,28.925 C13.325,29.325 13.425,29.725 13.425,30.225 C13.425,30.725 13.225,31.225 12.925,31.525 C12.625,31.925 12.125,32.025 11.625,32.025 L11.625,32.025 Z" id="Shape"></path>
                        <path d="M26.225,19.225 C25.725,19.225 25.225,19.025 24.925,18.725 C24.225,18.025 24.225,16.825 24.925,16.125 C25.625,15.425 26.825,15.425 27.525,16.125 C28.225,16.825 28.225,18.025 27.525,18.725 C27.225,19.025 26.725,19.225 26.225,19.225 L26.225,19.225 Z" id="Shape"></path>
                        <path d="M36.025,9.425 C35.525,9.425 35.025,9.225 34.725,8.925 C34.325,8.525 34.225,8.125 34.225,7.625 C34.225,7.125 34.425,6.625 34.725,6.325 C35.425,5.625 36.625,5.625 37.325,6.325 C37.725,6.725 37.825,7.125 37.825,7.625 C37.825,8.125 37.625,8.625 37.325,8.925 C37.025,9.225 36.525,9.425 36.025,9.425 L36.025,9.425 Z" id="Shape"></path>
                        <path d="M26.225,29.025 C25.725,29.025 25.225,28.825 24.925,28.525 C24.525,28.125 24.425,27.725 24.425,27.225 C24.425,26.725 24.625,26.225 24.925,25.925 C25.625,25.225 26.825,25.225 27.525,25.925 C27.925,26.325 28.025,26.725 28.025,27.225 C28.025,27.725 27.825,28.225 27.525,28.525 C27.225,28.825 26.725,29.025 26.225,29.025 L26.225,29.025 Z" id="Shape"></path>
                        <path d="M36.025,19.225 C35.525,19.225 35.025,19.025 34.725,18.725 C34.025,18.025 34.025,16.825 34.725,16.125 C35.425,15.425 36.625,15.425 37.325,16.125 C38.025,16.825 38.025,18.025 37.325,18.725 C37.025,19.025 36.525,19.225 36.025,19.225 L36.025,19.225 Z" id="Shape"></path>
                        <path d="M26.225,38.825 C25.725,38.825 25.225,38.625 24.925,38.325 C24.225,37.625 24.225,36.425 24.925,35.725 C25.625,35.025 26.825,35.025 27.525,35.725 C28.225,36.425 28.225,37.625 27.525,38.325 C27.225,38.625 26.725,38.825 26.225,38.825 L26.225,38.825 Z" id="Shape"></path>
                        <path d="M36.025,29.025 C35.525,29.025 35.025,28.825 34.725,28.525 C34.325,28.125 34.225,27.725 34.225,27.225 C34.225,26.725 34.425,26.225 34.725,25.925 C35.425,25.225 36.625,25.225 37.325,25.925 C37.725,26.325 37.825,26.725 37.825,27.225 C37.825,27.725 37.625,28.225 37.325,28.525 C37.025,28.825 36.525,29.025 36.025,29.025 L36.025,29.025 Z" id="Shape"></path>
                        <path d="M36.025,28.125 L25.625,28.125 L11.425,3.325 L2.525,12.225 L1.125,10.825 L11.825,0.125 L26.825,26.125 L36.025,26.125 L36.025,28.125 Z" id="Shape"></path>
                        <path d="M26.425,38.825 L11.525,17.525 L2.525,26.525 L1.125,25.025 L11.725,14.425 L26.125,34.925 L35.125,16.825 L36.925,17.725 L26.425,38.825 Z" id="Shape"></path>
                        <path d="M2.525,40.725 L1.125,39.325 L10.925,29.525 L25.525,16.525 L35.325,6.825 L36.725,8.225 L26.925,18.025 L12.325,30.925 L2.525,40.725 Z" id="Shape"></path>
                    </g>
                </g>
            </g>
        </g>
    </g>
</svg>